<svg width="128" height="38" viewBox="0 0 128 38" fill="none" xmlns="http://www.w3.org/2000/svg">
<mask id="mask0" mask-type="alpha" maskUnits="userSpaceOnUse" x="0" y="0" width="31" height="38">
<path fill-rule="evenodd" clip-rule="evenodd" d="M30.9209 0H0V37.3092H30.9209V0Z" fill="white"/>
</mask>
<g mask="url(#mask0)">
<path fill-rule="evenodd" clip-rule="evenodd" d="M22.5665 21.8928L22.535 27.2424C22.533 27.606 22.2387 27.9004 21.8747 27.9024C21.5127 27.9044 21.2156 27.6171 21.2067 27.2555C21.1813 26.2268 21.1305 24.7624 21.1005 24.5709C20.407 20.173 17.4305 17.7669 15.655 16.5595C15.8753 15.0237 16.1439 13.2371 16.233 12.5879L18.9976 11.0929L17.0039 5.05819C16.4507 3.38371 15.6493 2.0959 14.6219 1.23041C13.2653 0.0881249 11.5287 -0.268001 9.60046 0.200555C6.09389 1.05292 4.51875 3.90164 5.16532 8.22194C5.19561 8.42369 5.22903 8.64684 5.26589 8.88968C5.26589 8.89938 5.26532 8.90908 5.26532 8.91878C5.26532 9.02408 5.28361 9.12481 5.31618 9.21898C5.57018 10.8889 5.9536 13.3629 6.41703 16.3509C5.26875 17.0734 3.46732 18.2551 2.18189 19.9207C0.399892 22.2301 -0.134965 24.9664 0.0276063 28.3179C0.337321 34.7088 0.438178 36.335 0.442463 36.3815L0.525035 37.3092L1.45361 37.2216C1.63989 37.2039 6.04618 36.2922 8.48446 33.1684C9.8156 31.4626 10.2945 29.321 9.90818 26.8024C9.32903 23.0297 8.7596 19.3563 8.25732 16.1155C7.77675 13.0148 7.38132 10.464 7.12646 8.78866C7.1936 7.89806 7.93903 7.19323 8.8476 7.19323C9.79532 7.19323 10.567 7.95913 10.5753 8.90337C10.5787 9.31714 10.8336 9.6941 11.2322 9.80682C11.8602 9.98459 12.4302 9.51803 12.4302 8.91878C12.4302 6.94583 10.823 5.34098 8.8476 5.34098C8.12303 5.34098 7.44818 5.55756 6.88389 5.92853C7.00475 3.77637 8.04732 2.48455 10.039 2.00059C12.4976 1.40334 14.2476 2.62752 15.2425 5.63861L16.7499 10.2017L14.5216 11.4065L14.4585 11.8731C14.4439 11.9804 12.9962 22.6579 12.1379 26.753C11.6836 28.9232 12.0539 31.7705 13.6065 33.6792C15.3179 35.7832 18.0233 37.3007 21.7179 37.3007C25.4125 37.3007 28.1179 35.3794 29.4193 33.3824C30.385 31.9006 30.921 29.8295 30.921 27.1191V21.9707L22.5665 21.8928Z" fill="#212430"/>
</g>
<path fill-rule="evenodd" clip-rule="evenodd" d="M12.7166 15.3959C12.6426 15.1108 12.3732 14.9832 12.1641 15.1373L11.0278 15.974L9.89122 15.1373C9.68208 14.9832 9.41293 15.1108 9.33865 15.3959C9.26579 15.6761 9.19922 16.0599 9.19922 16.5276C9.19922 17.0175 9.27208 17.429 9.34922 17.7269C9.42179 18.008 9.68865 18.1327 9.89636 17.9846L11.0278 17.1768L12.1592 17.9846C12.3666 18.1327 12.6335 18.008 12.7064 17.7269C12.7832 17.429 12.8564 17.0175 12.8564 16.5276C12.8564 16.0599 12.7898 15.6761 12.7166 15.3959Z" fill="#212430"/>
<path fill-rule="evenodd" clip-rule="evenodd" d="M24.4077 18.8262V18.8305V18.8262ZM23.4813 23.9666C22.9693 23.9666 22.5542 23.5523 22.5539 23.0409L22.5527 18.8291C22.5513 18.3502 22.9027 17.8243 23.673 17.7447C24.0299 17.6825 24.3547 17.8628 24.505 17.9462C24.8585 18.1422 25.5922 18.5508 26.5779 18.4943C27.9245 18.4184 28.9865 17.7179 28.9967 17.711C29.151 17.606 29.3333 17.5498 29.5196 17.5498H33.2625C33.5087 17.5498 33.7447 17.6474 33.9187 17.8215C34.0925 17.9952 34.1902 18.231 34.1899 18.4766C34.1899 18.6156 34.1665 19.8712 33.3967 21.155C32.6707 22.3655 31.1422 23.8083 27.9819 23.8083C27.4699 23.8083 27.0545 23.3936 27.0545 22.882C27.0545 22.3706 27.4699 21.956 27.9819 21.956C29.8216 21.956 31.1079 21.3662 31.8053 20.2031C31.971 19.9268 32.085 19.6506 32.1633 19.4023H29.7799C29.2787 19.6891 28.1125 20.2633 26.6825 20.344C25.7562 20.3962 24.9739 20.1837 24.4079 19.9559L24.4087 23.0404C24.4087 23.5517 23.9939 23.9666 23.4816 23.9666H23.4813Z" fill="#212430"/>
<path fill-rule="evenodd" clip-rule="evenodd" d="M31.4265 16.6187C30.9145 16.6187 30.499 16.2038 30.499 15.6925V6.16553C30.499 5.65388 30.9145 5.23926 31.4265 5.23926C31.9384 5.23926 32.3539 5.65388 32.3539 6.16553V15.6925C32.3539 16.2038 31.9384 16.6187 31.4265 16.6187Z" fill="#087FFD"/>
<path fill-rule="evenodd" clip-rule="evenodd" d="M28.3434 16.6193C27.8314 16.6193 27.416 16.2044 27.416 15.6931V12.3433C27.416 11.8319 27.8314 11.417 28.3434 11.417C28.8557 11.417 29.2709 11.8319 29.2709 12.3433V15.6931C29.2709 16.2044 28.8557 16.6193 28.3434 16.6193Z" fill="#087FFD"/>
<path fill-rule="evenodd" clip-rule="evenodd" d="M25.2761 16.619C24.7641 16.619 24.3486 16.2041 24.3486 15.6928V9.63037C24.3486 9.11873 24.7641 8.7041 25.2761 8.7041C25.7883 8.7041 26.2035 9.11873 26.2035 9.63037V15.6928C26.2035 16.2041 25.7883 16.619 25.2761 16.619Z" fill="#087FFD"/>
<path fill-rule="evenodd" clip-rule="evenodd" d="M72.3659 21.1657V26.4211H76.7893C79.1282 26.4211 79.5353 24.9486 79.5353 23.8061C79.5353 22.7651 79.0773 21.1657 76.8148 21.1657H72.3659ZM72.3659 14.1327V19.0837H76.5354C78.2131 19.0837 78.7468 17.6618 78.7468 16.4433C78.7468 15.529 78.2639 14.1327 76.3574 14.1327H72.3659ZM79.2048 19.9469C80.5517 20.4294 81.9503 21.9781 81.9503 23.8061V23.9587C81.9503 27.0309 79.764 28.5287 76.8403 28.5287H69.9766V12.0254H76.0777C78.9503 12.0254 81.1623 13.3201 81.1623 16.3417V16.4938C81.1623 18.1697 80.3483 19.3123 79.2048 19.8961V19.9469Z" fill="#212430"/>
<path fill-rule="evenodd" clip-rule="evenodd" d="M85.1737 15.834V23.6285C85.1737 26.1425 86.6735 26.9041 88.1735 26.9041C89.6735 26.9041 91.1735 26.1425 91.1735 23.6285V15.834H93.4615V23.7304C93.4615 27.3867 90.8937 28.9353 88.1735 28.9353C85.4535 28.9353 82.8857 27.3867 82.8857 23.7304V15.834H85.1737Z" fill="#212430"/>
<path fill-rule="evenodd" clip-rule="evenodd" d="M102.026 15.8341V17.7129H98.4924V24.8474C98.4924 26.3455 99.3312 26.7773 100.272 26.7773C100.933 26.7773 101.594 26.5741 102.102 26.1934H102.509V28.1481C101.899 28.4786 100.831 28.7576 100.068 28.7576C97.3229 28.7576 96.1535 27.2598 96.1535 24.9239V17.7129H94.3232V16.5957C96.2555 15.9357 96.9927 14.336 97.3229 12.9648H98.4924V15.8341H102.026Z" fill="#212430"/>
<path fill-rule="evenodd" clip-rule="evenodd" d="M105.873 24.9002C105.873 26.4745 106.737 26.8805 108.059 26.6522H108.44V28.6326C108.11 28.7091 107.373 28.7596 106.89 28.7596C104.703 28.7596 103.56 27.4649 103.56 25.2049V10.7559H105.873V24.9002Z" fill="#212430"/>
<path fill-rule="evenodd" clip-rule="evenodd" d="M114.41 17.4081C112.173 17.4081 111.054 18.8554 110.724 20.9882H117.765C117.613 19.2615 116.672 17.4081 114.41 17.4081ZM119.927 24.9743C119.316 27.5132 117.206 28.9354 114.41 28.9354C110.876 28.9354 108.309 26.3195 108.309 22.3591V22.0035C108.309 18.0935 110.774 15.4531 114.333 15.4531C118.121 15.4531 120.13 18.3729 120.13 21.953C120.13 22.3083 120.13 22.5114 120.105 22.8924H110.673C110.876 25.228 112.122 26.9547 114.461 26.9547C116.113 26.9547 117.13 26.2693 117.639 24.9743H119.927Z" fill="#212430"/>
<path fill-rule="evenodd" clip-rule="evenodd" d="M123.602 28.529H121.289V15.834H122.84L123.424 18.0684H123.476C123.984 16.5448 125.585 15.7324 127.212 15.7324C127.365 15.7324 127.823 15.7578 128 15.7829V18.0684H127.288C123.882 18.0684 123.602 20.2008 123.602 22.4863V28.529Z" fill="#212430"/>
<path fill-rule="evenodd" clip-rule="evenodd" d="M47.3032 14.9608C47.1761 15.3925 46.7946 16.4589 46.6932 16.7126L44.3798 22.4508H50.2775L47.9386 16.6618C47.8369 16.4081 47.4558 15.3925 47.3541 14.9608H47.3032ZM51.1418 24.5833H43.541L41.9647 28.4933H39.5244V28.1123L46.3373 11.9902H48.4218L55.2601 28.1123V28.4933H52.7178L51.1418 24.5833Z" fill="#212430"/>
<path fill-rule="evenodd" clip-rule="evenodd" d="M57.1923 22.1713C57.1923 24.7863 58.4888 26.919 61.2849 26.919C64.0051 26.919 65.2506 24.7355 65.2506 22.1713C65.2506 19.6068 64.0557 17.3727 61.2849 17.3727C58.4377 17.3727 57.1923 19.4798 57.1923 22.1713ZM61.1835 15.4177C62.9629 15.4177 64.3101 16.0777 65.1238 17.1187H65.1744V10.7207H67.4878V28.493H65.7592L65.2764 26.9695H65.2252C64.3101 28.2647 62.6069 28.8994 60.8784 28.8994C57.8787 28.8994 54.8535 26.665 54.8535 22.4506V22.0696C54.8535 18.2613 57.1669 15.4177 61.1835 15.4177Z" fill="#212430"/>
</svg>
