<svg viewBox="0 0 800 800" xmlns="http://www.w3.org/2000/svg" xmlns:xlink="http://www.w3.org/1999/xlink"><linearGradient id="a" gradientUnits="userSpaceOnUse" x1="151.53" x2="657.6" y1="381.36" y2="381.36"><stop offset="0" stop-color="#f4f37d"/><stop offset=".45" stop-color="#83dbd4"/><stop offset="1" stop-color="#1a83eb"/></linearGradient><path d="m659.63 422.23a6.44 6.44 0 0 1 .27-3.58 40.59 40.59 0 0 0 2.23-8.95 6.38 6.38 0 0 1 6.38-5.48h1.39a40.71 40.71 0 0 1 -1.75 6.19 6.36 6.36 0 0 0 1.43 6.72l4 4.05a50.87 50.87 0 0 1 -12.58 14.69 50.14 50.14 0 0 0 3.9-5.65 1.17 1.17 0 0 0 -.19-1.44l-3.4-3.4a6.49 6.49 0 0 1 -1.68-3.15zm4.12 27.45a63.11 63.11 0 0 1 -27.51 9.78 6.32 6.32 0 0 1 -2.62-.31 6.38 6.38 0 0 1 -3.79-3.48 6.42 6.42 0 0 1 -.54-2.58v-8.26c-.91.18-1.83.35-2.76.47a6.35 6.35 0 0 0 -5.48 6.47v9.56a6.18 6.18 0 0 0 .53 2.58 6.45 6.45 0 0 0 1.53 2.15 6.53 6.53 0 0 0 2.27 1.34 6.43 6.43 0 0 0 2.61.31 63.13 63.13 0 0 0 27.51-9.79 62.06 62.06 0 0 0 14.5-12.84 60.57 60.57 0 0 1 -6.25 4.6zm-481.38-121.45h-3v34.37a4.6 4.6 0 0 1 -4.61 4.61h-60.43v3a4 4 0 0 0 4 4h64a4 4 0 0 0 4-4v-38a4 4 0 0 0 -3.96-3.98zm192.63-32.62v-35.33h-4a4 4 0 0 0 -4 4v35.35a4 4 0 0 0 4 4h61.8a4 4 0 0 0 4-4v-4z" fill="#595b63"/><path d="m202.06 502.62a2 2 0 0 1 -2 2h-17.9v-4h17.9a2 2 0 0 1 2 2zm172.94-244.52h-21.1a2 2 0 0 0 0 4h21.1zm212.52 4h39.28v-4h-39.25a2 2 0 0 0 0 4zm-436 198.47h4v-93.36h-4zm101.48-202.47h-99.47a2 2 0 0 0 -2 2v61.13h4v-59.13h97.47a2 2 0 1 0 0-4zm219.7 242.52h-105.64a2 2 0 0 0 0 4h105.64a2 2 0 0 0 0-4zm180.9-196.73v134.05a2 2 0 0 0 4 0v-134zm2 148.82a2 2 0 0 0 -2 2v45.91h-57.51a2 2 0 0 0 0 4h59.51a2 2 0 0 0 2-2v-47.91a2 2 0 0 0 -2-2zm-162.94-194.61h-33v4h33a2 2 0 0 0 0-4z" fill="url(#a)"/><path d="m259.85 552.57h-35.85a2 2 0 0 1 -2-1.72l-1.16-8.22c-23.68-73.86-28.68-188.69.38-226.2a2 2 0 1 1 3.16 2.45c-12.65 16.33-19.64 51.38-19.16 96.15.45 42.68 7.74 90 19.48 126.53a2.09 2.09 0 0 1 .08.34l.94 6.67h31.73c0-.23-.08-.46-.13-.7-1.32-7.32-4.5-10-4.53-10a2.08 2.08 0 0 1 -.74-1.37l-7.53-78.16a1.55 1.55 0 0 1 0-.43l9.32-78.15a2 2 0 1 1 4 .47l-9.29 77.94 7.44 77.2c1.29 1.36 4.06 4.93 5.3 11.82.18 1 .38 2 .58 3a2 2 0 0 1 -2 2.4z" fill="#595b63"/><path d="m224 319.25-2.4-3.2c24.58-18.39 45-21 45.84-21.06l.46 4c-.22.01-20.28 2.56-43.9 20.26z" fill="#595b63"/><path d="m341.35 286.8a2 2 0 0 1 -.37-4c6.17-1.17 10.22-3.49 10.83-6.19.45-2-.46-6.58-11.64-14.75a2 2 0 0 1 2.37-3.23c10.06 7.36 14.37 13.53 13.17 18.86-1.28 5.68-8.31 8.16-14 9.24a1.64 1.64 0 0 1 -.36.07z" fill="#595b63"/><path d="m302.52 311.81a1.81 1.81 0 0 1 -.56-.08 2 2 0 0 1 -1.37-2.47l4.55-15.88a2 2 0 0 1 3.85 1.1l-4.55 15.88a2 2 0 0 1 -1.92 1.45z" fill="#595b63"/><path d="m310.25 332.33c-3.52 0-8.1-1.08-14.05-4a125.69 125.69 0 0 1 -18.66-11.71c-6.91-5-13.45-9.71-24.33-14.14l1.51-3.71c11.32 4.62 18.36 9.69 25.16 14.6a121.41 121.41 0 0 0 18.12 11.35c8.42 4.17 14.79 4.74 17.94 1.61 2.67-2.65 2.51-7.35 1-10.44a80.44 80.44 0 0 0 -7.79-12.79l3.14-2.46a82.56 82.56 0 0 1 8.24 13.5c2.16 4.44 2.25 11-1.78 15a11.51 11.51 0 0 1 -8.5 3.19z" fill="#595b63"/><path d="m334.44 203.11c19.41 14.7 2.17 33 2.17 33s1.76-17.54-11-25.65 8.83-7.35 8.83-7.35z" fill="#595b63"/><path d="m305.31 244.12a2.85 2.85 0 0 1 -2.69 3.21 3 3 0 0 1 -3-3 3.06 3.06 0 0 1 2.69-3.43 3.18 3.18 0 0 1 3 3.22z" fill="#595b63"/><path d="m328.87 243.83a2.86 2.86 0 0 1 -2.69 3.21 3 3 0 0 1 -3-3 3.08 3.08 0 0 1 2.7-3.44 3.22 3.22 0 0 1 2.99 3.23z" fill="#595b63"/><path d="m316.17 277.06c-5.88 0-11.73-3.33-14.94-6a2 2 0 0 1 2.57-3.06 27.37 27.37 0 0 0 7.19 4.09c5 1.83 9 1.19 12-1.9a2 2 0 1 1 2.87 2.79 13.12 13.12 0 0 1 -9.69 4.08z" fill="#595b63"/><path d="m370.38 438.5h-33.57a2 2 0 0 1 -2-2v-45.75a2 2 0 0 1 2-2h33.57a2 2 0 0 1 2 2v45.75a2 2 0 0 1 -2 2zm-31.57-4h29.57v-41.75h-29.57z" fill="#595b63"/><path d="m198.14 252.32h-45.66a2 2 0 0 1 -2-2v-7.42a2 2 0 0 1 2-2h45.66a2 2 0 0 1 2 2v7.42a2 2 0 0 1 -2 2zm-43.66-4h41.66v-3.42h-41.66z" fill="#0d83ff"/><path d="m138.61 279.78h-17.68a2 2 0 0 1 -2-2v-17.68a2 2 0 0 1 2-2h17.68a2 2 0 0 1 2 2v17.68a2 2 0 0 1 -2 2zm-15.68-4h13.68v-13.68h-13.68z" fill="#0d83ff"/><path d="m685.81 259.92-15-15a2 2 0 0 0 -2.82 0l-1.42 1.42h2.83v2.82l13 13v39.73h-39.73l-13-13h-2.87v-2.89l-1.41 1.41a2 2 0 0 0 0 2.83l15 15a2 2 0 0 0 1.41.58h42.6a2 2 0 0 0 2-2v-42.49a2 2 0 0 0 -.59-1.41z" fill="#595b63"/><path d="m669.36 290.85h-42.56a2 2 0 0 1 -2-2v-42.55a2 2 0 0 1 2-2h42.56a2 2 0 0 1 2 2v42.55a2 2 0 0 1 -2 2zm-40.56-4h38.56v-38.55h-38.56z" fill="#595b63"/><path d="m683.87 305.89a2 2 0 0 1 -1.41-.58l-15-15a2 2 0 0 1 2.83-2.83l15 15a2 2 0 0 1 -1.42 3.41z" fill="#595b63"/><path d="m236.78 413.14a138.66 138.66 0 0 1 -32.85-4.36 2 2 0 0 1 .95-3.89c30.24 7.42 46.61 2.78 46.77 2.74a2 2 0 0 1 1.15 3.83c-.39.12-5.8 1.68-16.02 1.68z" fill="#595b63"/><path d="m389.67 435.19h-.1l-19.11-.95a2 2 0 0 1 -1.9-2v-38.24a2 2 0 0 1 1.44-2l12.06-3.21a2 2 0 0 1 1.67.3l14.94 10.61a2 2 0 0 1 .79 2.11l-7.89 31.84a2 2 0 0 1 -1.9 1.54zm-17.11-4.85 15.57.78 7.16-28.92-13.07-9.27-9.66 2.57z" fill="#595b63"/><path d="m578.94 434a2 2 0 0 1 -1.93-1.5l-6-23a2 2 0 1 1 3.87-1l5 19.12c2.46-1.8 6.86-3.86 14.52-5.94 8.11-2.21 13.34-1.91 16.66-.85-2.52-7.86-7.6-22.71-13.36-34.31-7.07-14.25-33.23-19.72-38.23-20.64a121.19 121.19 0 0 0 -13.12 12c-6.85 7-12.26 12.51-21.52 11.78-4.17-.33-6.25-2.43-7.26-4.14-2.81-4.75-1-12.23.53-16.71-20.11 5.05-39 17.66-47.4 31.8 7.56 5.25 18.41 21.93 19.72 24a2 2 0 0 1 -3.36 2.16c-3.7-5.74-14.46-21.18-19.88-23.57a2 2 0 0 1 -1-2.77c9-16.9 31-31.5 54.71-36.33a2 2 0 0 1 2.22 2.78c-1.43 3.2-4.63 12.43-2.14 16.63a4.83 4.83 0 0 0 4.13 2.19c7.39.6 11.75-3.86 18.35-10.59a122.86 122.86 0 0 1 14.25-13 2 2 0 0 1 1.52-.38c1.36.21 33.31 5.41 42 23 8.33 16.79 15.23 40.15 15.3 40.39a2 2 0 0 1 -3.73 1.41s-3-4.94-17.41-1c-12.31 3.35-14.26 6.17-14.5 6.6a2 2 0 0 1 -2 1.89z" fill="#595b63"/><path d="m505.62 322.43a16.63 16.63 0 0 1 -7.93-11c-1.81-7.71 1.36-15.14 7.11-17.15l-.12-4.14c-8.4 2.07-13.28 12-10.88 22.21 1.7 7.23 6.6 12.71 12.32 14.62a41.93 41.93 0 0 1 -.5-4.54z" fill="#595b63"/><path d="m523.93 371.87h-.23a2 2 0 0 1 -1.76-2.21l2.65-24a2 2 0 1 1 4 .44l-2.65 24a2 2 0 0 1 -2.01 1.77z" fill="#595b63"/><path d="m538.52 258.5c-34.63-19.69-59.55 38.16-33.85 53.29 2.82-15.56-5.28-37.41 10.81-40.69 19.15-3.9 23.04-12.6 23.04-12.6z" fill="#595b63"/><path d="m519.36 322.21a6.17 6.17 0 0 1 -3-.67 4.41 4.41 0 0 1 -2.16-2.69c-.57-2 .51-3.7 1.22-4.85a7.22 7.22 0 0 0 .45-.77 2 2 0 0 1 3.6 1.75c-.19.38-.42.76-.65 1.13a4.84 4.84 0 0 0 -.78 1.62c.22.76 2.28.42 2.84.26a2 2 0 0 1 2.48 1.36 2 2 0 0 1 -1.35 2.47 10.26 10.26 0 0 1 -2.65.39z" fill="#595b63"/><ellipse cx="536.72" cy="302.05" fill="#595b63" rx="5.49" ry="3.69" transform="matrix(.03769018 -.99928947 .99928947 .03769018 214.67 827.01)"/><ellipse cx="516.09" cy="301.27" fill="#595b63" rx="5.49" ry="3.69" transform="matrix(.03769018 -.99928947 .99928947 .03769018 195.6 805.66)"/><path d="m523.43 338.76h-.71c-2.16-.15-9.17-1.49-8.63-12.57a2 2 0 0 1 2.06-1.9c.12 0 12.35.35 20.38-.4a2 2 0 0 1 1.6.57 2 2 0 0 1 .58 1.59c-.61 6.95-8.85 12.71-15.28 12.71zm-5.34-10.45c.17 3.12 1.28 6.19 4.9 6.44 4.48.31 9.21-3.13 11-6.68-5.84.36-12.58.3-15.9.24z" fill="#595b63"/><path d="m541.29 292.52a1.89 1.89 0 0 1 -.47-.06 23.53 23.53 0 0 0 -7.5-.19 2 2 0 0 1 -.57-4 27.46 27.46 0 0 1 9 .26 2 2 0 0 1 -.46 3.95z" fill="#595b63"/><path d="m512.22 292.28a2 2 0 0 1 -.65-3.89 15.26 15.26 0 0 1 9-.15 2 2 0 1 1 -1.27 3.79 11.37 11.37 0 0 0 -6.46.14 1.89 1.89 0 0 1 -.62.11z" fill="#595b63"/><path d="m584.46 514.94h-.1l-93.11-4.51a2 2 0 0 1 -1.9-1.9c0-.43-2.16-42.79-2.16-66.68 0-24.57 5.32-37.37 15.79-53.71a2 2 0 0 1 3.37 2.16c-10.27 16-15.16 27.83-15.16 51.55 0 21 1.65 56.31 2.06 64.67l89.35 4.33 2.95-40.85a2 2 0 0 1 4 .29l-3.09 42.77a2 2 0 0 1 -2 1.88z" fill="#595b63"/><path d="m562.93 327.7a12.88 12.88 0 0 1 -3-.35 14.5 14.5 0 0 1 -9.72-8.2 21.36 21.36 0 0 1 -1.31-14c2.41-10.28 11.27-17 19.77-15s13.44 12 11 22.25c-2.11 8.99-9.26 15.3-16.74 15.3zm2.68-34c-5.65 0-11.13 5.06-12.83 12.29a17.33 17.33 0 0 0 1 11.4 10.61 10.61 0 0 0 7 6c6.35 1.48 13.06-3.92 15-12s-1.7-16-8-17.44a9.75 9.75 0 0 0 -2.17-.22z" fill="#595b63"/><path d="m495.83 346.22h-.08c-5.43-.23-9.15-2.24-10.48-5.68-2-5.24 2-12.86 11.89-22.64a2 2 0 0 1 2.81 2.85c-11.8 11.64-11.6 16.71-11 18.35 1 2.6 5.17 3 6.92 3.12a2 2 0 0 1 -.09 4z" fill="#595b63"/><path d="m664.38 338.74a2 2 0 0 1 -.76-.15 2 2 0 0 1 -1.24-1.85v-21.74a2 2 0 0 1 2-2h21.62a2 2 0 0 1 1.84 1.23 2 2 0 0 1 -.42 2.18l-21.62 21.74a2 2 0 0 1 -1.42.59zm2-21.76v14.91l14.82-14.89z" fill="#0d83ff"/><g fill="#595b63"><path d="m574.26 236a1.92 1.92 0 0 1 -.74-.15 2 2 0 0 1 -1.26-1.8l-.26-9.57h-17.6a2 2 0 0 1 -2-2v-37.24a2 2 0 0 1 2-2h66.29a2 2 0 0 1 2 2v37.24a2 2 0 0 1 -2 2h-34.05l-11 10.93a2 2 0 0 1 -1.38.59zm-17.86-15.52h17.6a2 2 0 0 1 2 1.94l.19 6.88 8.26-8.24a2 2 0 0 1 1.41-.58h32.88v-33.24h-62.34z"/><path d="m571.68 210.22a6.27 6.27 0 1 1 6.32-6.22 6.29 6.29 0 0 1 -6.32 6.22zm0-8.54a2.27 2.27 0 1 0 2.32 2.32 2.27 2.27 0 0 0 -2.32-2.32z"/><path d="m587.55 210.22a6.27 6.27 0 1 1 6.27-6.27 6.28 6.28 0 0 1 -6.27 6.27zm0-8.54a2.27 2.27 0 1 0 2.27 2.27 2.27 2.27 0 0 0 -2.27-2.27z"/><path d="m603.41 210.22a6.27 6.27 0 1 1 6.27-6.27 6.28 6.28 0 0 1 -6.27 6.27zm0-8.54a2.27 2.27 0 1 0 2.27 2.27 2.27 2.27 0 0 0 -2.27-2.27z"/><path d="m315.84 264.17a31.12 31.12 0 0 1 -3.19-.16 2 2 0 0 1 .45-4c3.94.43 10.1-.08 10.82-2.55.08-1.56-5-7.13-10.93-11.87a2 2 0 1 1 2.5-3.12c5.13 4.11 13.55 11.68 12.27 16.1-1.39 4.83-7.87 5.6-11.92 5.6z"/><path d="m458.56 419.09a2.25 2.25 0 0 1 -.56-.09 2 2 0 0 1 -1.44-1.51 118.23 118.23 0 0 0 -3.75-12.87c-3.62-10.83-7.36-22-4.65-43.54a2 2 0 0 1 4 .5c-2.6 20.62.84 30.89 4.47 41.77 1 3.06 2.07 6.21 3 9.6l9.74-10.61a2 2 0 0 1 2.95 2.7l-12.32 13.4a2 2 0 0 1 -1.44.65z"/><path d="m440.78 453.6a2 2 0 0 1 -1.22-.42c-.58-.45-14.2-11.75-14.2-80.48l.85-19.75a2.1 2.1 0 0 1 .09-.5c0-.07 2.21-7.15 5.06-14.22 5.43-13.51 8.59-15.59 10.74-15.9 6.62-.94 18.11 5.65 22.17 9.56.83.8 4.79 5.59 1.5 21.61a2 2 0 0 1 -3.92-.81c1.25-6.09 2-15.68-.36-17.92-3.89-3.75-14.08-9.15-18.82-8.48-2.35.58-8.16 13.21-12.47 27.09l-.84 19.4c0 34.22 3.44 53.41 6.33 63.47 2.43 8.49 4.89 12.09 5.89 13.3 4.93-.37 29.41-2.86 43.78-16.85a2 2 0 1 1 2.79 2.86c-17.06 16.62-46.06 18-47.29 18z"/><path d="m439.72 328.43a2 2 0 0 1 -.83-.18 2 2 0 0 1 -1-2.65l10.28-22.51a2 2 0 0 1 2.86-.87l4.68 2.83a2 2 0 0 1 .92 2.11l-3.9 19.23a2 2 0 0 1 -3.92-.8l3.62-17.85-1.55-.94-9.35 20.46a2 2 0 0 1 -1.81 1.17z"/><path d="m440.66 366.53a2 2 0 0 1 -.63-3.9l9.52-3.18a2.05 2.05 0 0 1 .54-.1l19.09-.9.19-1.7-22.18-2.46a2 2 0 1 1 .44-4l24.18 2.71a2 2 0 0 1 1.77 2.22l-.58 5.38a2 2 0 0 1 -1.9 1.77l-20.5 1-9.27 3.09a2 2 0 0 1 -.67.07z"/><path d="m462.24 339.26a2 2 0 0 1 -.63-.1 59.11 59.11 0 0 0 -12.43-2.45 2 2 0 1 1 .32-4 60.74 60.74 0 0 1 13.38 2.64 2 2 0 0 1 -.64 3.89z"/><path d="m463.12 347.67a2 2 0 0 1 -1.11-.34s-4.1-2.57-13.29-2.18a2 2 0 0 1 -2.08-1.92 2 2 0 0 1 1.91-2.08c10.65-.46 15.49 2.73 15.69 2.86a2 2 0 0 1 -1.12 3.66z"/><path d="m509 438.85 3.43.93s-1.44-3.13-2.74-6.73z"/><path d="m578.06 406.75-63.35-5.88a1.19 1.19 0 0 0 -1.28 1l-1.89 15.84 3.3 1.09a17.4 17.4 0 0 0 1.77 8.6c1.95 3.92 14.68 17.17 17.46 20 4.65-.17 9.64-.51 14.79-1.1a240.53 240.53 0 0 0 25.48-4.15l4.78-34.13a1.17 1.17 0 0 0 -1.06-1.27z"/><path d="m532.2 445.53c1.46 1.53 2.41 2.5 2.41 2.5l-.2 1.42c4.63-.17 9.59-.51 14.67-1.09 22.35-2.55 33.3-6.15 33.76-6.3a2 2 0 0 0 1.33-2.29l-2.17-10.42a2 2 0 1 0 -3.92.8l1.76 8.62c-3.85 1.08-14.26 3.68-31.25 5.62-5.7.61-11.28.99-16.39 1.14z"/><path d="m611 421.93a2 2 0 1 0 -3.87 1c4.37 16.44.39 36.7-.75 41.8-5.58 1.12-29.25 5.48-53.46 4.88-8.08-.2-15.26-.62-21.24-1.08l-.28 2c-3.86.53-7.41.85-10.63 1 7.15.77 18.32 1.72 32.05 2.07 1.6 0 3.2.06 4.79.06a273.12 273.12 0 0 0 50.85-5.28 2 2 0 0 0 1.54-1.38c.24-1.06 6.29-25.18 1-45.07z"/><path d="m552.88 471.64c-8.2-.21-15.45-.63-21.47-1.09a109.51 109.51 0 0 1 -26.26.71l-1.86 15.59a1.17 1.17 0 0 0 1.07 1.31l61.7 5.12a1.18 1.18 0 0 0 1.27-1l2.93-20.94c-5.58.31-11.45.45-17.38.3z"/><path d="m514.66 473.75c-10.51 0-16.29-1.56-16.63-1.65a2 2 0 0 1 -1.14-.83c-.21-.32-5.25-8.13-3.39-20 1.89-12.05 8.22-15.68 8.49-15.83a1.94 1.94 0 0 1 1.49-.18l5.5 1.49c-1.54-3.84-3.54-9.54-3.28-12.73a21 21 0 0 1 2.09-7.92 2 2 0 0 1 2.38-.93l5.3 1.75a2 2 0 0 1 1.36 2.1 15.58 15.58 0 0 0 1.57 7.51c1.5 3 11.37 13.67 17.64 20.08a2 2 0 0 1 -2.86 2.8c-1.64-1.68-16.1-16.54-18.36-21.1a19.79 19.79 0 0 1 -2-8.05l-2.15-.71a19.6 19.6 0 0 0 -1 4.79c-.24 2.87 2.68 10.47 4.58 14.58a2 2 0 0 1 -2.34 2.77l-8.59-2.33c-1.35 1.11-4.64 4.55-5.89 12.53a27 27 0 0 0 2.42 16.51c2.9.63 13.9 2.53 31.27.14a2 2 0 0 1 .54 4 126.05 126.05 0 0 1 -17 1.21z"/><path d="m302.46 257.48a13.42 13.42 0 1 1 13.42-13.42 13.43 13.43 0 0 1 -13.42 13.42zm0-22.84a9.42 9.42 0 1 0 9.42 9.42 9.42 9.42 0 0 0 -9.42-9.42z"/><path d="m387.46 418h-.12l-16.25-1a2 2 0 0 1 -1.88-2.08l.37-9.91a2 2 0 0 1 1.72-1.9l23.4-3.29a2 2 0 0 1 .56 4l-21.74 3.06-.24 6.27 14.29.81a2 2 0 0 1 -.11 4z"/><path d="m356.63 453.08a2 2 0 0 1 -.44-3.95c.18 0 17.47-4 28.73-17.23a2 2 0 0 1 3.05 2.59c-12.15 14.27-30.15 18.38-30.91 18.55a2.15 2.15 0 0 1 -.43.04z"/><path d="m183.58 475-15.89-15.89a2 2 0 0 0 -1.42-.59h-45a2 2 0 0 0 -2 2v45a2 2 0 0 0 .59 1.41l15.89 15.89a2 2 0 0 0 2.82 0l1.42-1.41h-2.83v-2.81l-13.86-13.89v-42.15h42.14l13.89 13.9h2.83v2.82l1.42-1.41a2 2 0 0 0 0-2.87z"/><path d="m182.16 523.43h-45a2 2 0 0 1 -2-2v-45a2 2 0 0 1 2-2h45a2 2 0 0 1 2 2v45a2 2 0 0 1 -2 2zm-43-4h41v-41h-41z"/><path d="m137.75 478.46a2 2 0 0 1 -1.42-.59l-15.89-15.87a2 2 0 1 1 2.83-2.83l15.89 15.83a2 2 0 0 1 -1.41 3.42z"/><path d="m635.66 461.49a8.37 8.37 0 0 1 -8.37-8.41v-9.56a8.39 8.39 0 0 1 2-5.57 8.44 8.44 0 0 1 5.22-2.88 38.82 38.82 0 0 0 8.49-2.07 8.36 8.36 0 0 1 8.83 1.89l3 3a49 49 0 0 0 16.3-16.3l-3-2.95a8.37 8.37 0 0 1 -1.9-8.85 38.29 38.29 0 0 0 2.12-8.51 8.39 8.39 0 0 1 2.84-5.19 8.26 8.26 0 0 1 5.54-2h9.54a8.32 8.32 0 0 1 6.18 2.73 8.2 8.2 0 0 1 1.75 3 8.31 8.31 0 0 1 .41 3.43 65.45 65.45 0 0 1 -10.1 28.54 64.45 64.45 0 0 1 -19.73 19.72 65.31 65.31 0 0 1 -28.36 10.09 7.26 7.26 0 0 1 -.76-.11zm10.34-25.07a4.32 4.32 0 0 0 -1.54.28 43.47 43.47 0 0 1 -9.46 2.3 4.35 4.35 0 0 0 -2.71 1.5 4.33 4.33 0 0 0 -1 2.94v9.61a4.4 4.4 0 0 0 1.42 3.25 4.43 4.43 0 0 0 1.55.92 4.59 4.59 0 0 0 1.8.21 61.37 61.37 0 0 0 26.6-9.47 60.6 60.6 0 0 0 18.52-18.52 61.44 61.44 0 0 0 9.49-26.77 4.27 4.27 0 0 0 -.22-1.76 4.39 4.39 0 0 0 -.91-1.56 4.35 4.35 0 0 0 -3.23-1.42h-9.56a4.55 4.55 0 0 0 -2.91 1.06 4.34 4.34 0 0 0 -1.48 2.7 43 43 0 0 1 -2.34 9.38 4.36 4.36 0 0 0 -.19 2.45 4.44 4.44 0 0 0 1.17 2.17l4 4a2 2 0 0 1 .33 2.4 53 53 0 0 1 -19.84 19.91 2 2 0 0 1 -2.4-.32l-4.09-4.01a4.4 4.4 0 0 0 -2.15-1.16 4.78 4.78 0 0 0 -.85-.09z"/><path d="m403.74 283a2 2 0 0 1 -1.41-.58l-12.18-12.18a2 2 0 0 1 0-2.83l12.18-12.18a2 2 0 0 1 2.83 2.83l-10.77 10.76 10.77 10.77a2 2 0 0 1 -1.42 3.41z"/><path d="m431 283a2 2 0 0 1 -1.41-.58 2 2 0 0 1 0-2.83l10.76-10.77-10.81-10.82a2 2 0 0 1 2.83-2.83l12.17 12.18a2 2 0 0 1 0 2.83l-12.17 12.18a2 2 0 0 1 -1.37.64z"/><path d="m412.42 283a2 2 0 0 1 -1.85-2.75l9.85-24.35a2 2 0 1 1 3.71 1.5l-9.85 24.35a2 2 0 0 1 -1.86 1.25z"/></g><path d="m439.72 217.14h-44.72a2 2 0 0 1 -2-2v-11.14a2 2 0 0 1 2-2h44.74a2 2 0 0 1 2 2v11.19a2 2 0 0 1 -2.02 1.95zm-42.74-4h40.74v-7.14h-40.72z" fill="#0d83ff"/><path d="m692.68 540.27h-25.32a2 2 0 0 1 -2-2v-25.33a2 2 0 0 1 2-2h25.32a2 2 0 0 1 2 2v25.33a2 2 0 0 1 -2 2zm-23.32-4h21.32v-21.33h-21.32z" fill="#0d83ff"/><path d="m190.83 305.63a2 2 0 0 1 -2-2v-22.94a2 2 0 0 1 4 0v22.94a2 2 0 0 1 -2 2z" fill="#595b63"/><path d="m202.31 294.16h-22.95a2 2 0 0 1 0-4h22.95a2 2 0 0 1 0 4z" fill="#595b63"/><path d="m391.57 360.46a2 2 0 0 1 -2-2v-17.46a2 2 0 0 1 4 0v17.49a2 2 0 0 1 -2 1.97z" fill="#0d83ff"/><path d="m400.31 351.72h-17.49a2 2 0 1 1 0-4h17.49a2 2 0 0 1 0 4z" fill="#0d83ff"/><path d="m611.15 342.44a2 2 0 0 1 -2-2v-17.33a2 2 0 0 1 4 0v17.33a2 2 0 0 1 -2 2z" fill="#595b63"/><path d="m619.81 333.77h-17.33a2 2 0 0 1 0-4h17.33a2 2 0 0 1 0 4z" fill="#595b63"/><path d="m417.35 484a2 2 0 0 1 -2-2v-20.49a2 2 0 0 1 4 0v20.49a2 2 0 0 1 -2 2z" fill="#595b63"/><path d="m427.58 473.74h-20.47a2 2 0 0 1 0-4h20.47a2 2 0 0 1 0 4z" fill="#595b63"/><path d="m182.16 443.59a2 2 0 0 1 -2-2v-19.16a2 2 0 0 1 4 0v19.16a2 2 0 0 1 -2 2z" fill="#0d83ff"/><path d="m191.74 434h-19.15a2 2 0 0 1 0-4h19.15a2 2 0 0 1 0 4z" fill="#0d83ff"/><path d="m655.6 552.57h-502.07a2 2 0 1 1 0-4h502.07a2 2 0 0 1 0 4z" fill="#595b63"/><path d="m337.06 228.8a41 41 0 0 0 -12.89-29.22 35.39 35.39 0 0 0 -14.71-8.4c-2.3.69-4 1.22-4 1.22-9.09-2-14.69.38-18.07 4.84a30.62 30.62 0 0 1 11.07-3.1l.84-.07c7.92-.5 15.78 2.49 22.12 8.43a36.94 36.94 0 0 1 11.62 26.36s.56 20.12 1 36.57c.24 9.53-3.89 21.29-12.26 25.35-7.41 3.59-17.16.64-28.21-8.53a2 2 0 0 0 -2.55 3.08c10 8.32 18 10.93 24.11 10.93a19.16 19.16 0 0 0 8.4-1.88c10.35-5 14.77-18.58 14.51-29.05-.42-16.44-.98-36.53-.98-36.53z" fill="#595b63"/><path d="m276.11 268.3a16.12 16.12 0 0 1 -9.9-3.6 22.82 22.82 0 0 1 -7.94-12.83 22.78 22.78 0 0 1 1.41-15 14.93 14.93 0 0 1 23.51-5.51 22.79 22.79 0 0 1 7.94 12.83c2.58 11-2.7 21.64-11.76 23.76a13.89 13.89 0 0 1 -3.26.35zm-2.84-36.58a10.22 10.22 0 0 0 -2.33.27 11.55 11.55 0 0 0 -7.66 6.59 18.78 18.78 0 0 0 -1.12 12.42 18.82 18.82 0 0 0 6.51 10.59 11.54 11.54 0 0 0 9.79 2.49c6.91-1.62 10.85-10.13 8.77-19a18.79 18.79 0 0 0 -6.5-10.59 12.2 12.2 0 0 0 -7.46-2.77z" fill="#595b63"/><path d="m266.1 232.07a12.41 12.41 0 0 1 3.78-1.84 32.94 32.94 0 0 1 1.46-14.2 58.91 58.91 0 0 1 1.27-11.22 37.19 37.19 0 0 0 -6.57 27 2.1 2.1 0 0 0 .06.26z" fill="#595b63"/><path d="m270.48 230.05a11.25 11.25 0 0 1 1.71-.27c-1-7.14-1.85-19.33 1.78-29.79-.52.73-1 1.48-1.48 2.29-7.38 4.41-9.66 17.77-8.54 31.72a12.59 12.59 0 0 1 6.53-3.95z" fill="#595b63"/><path d="m273.31 266a25.64 25.64 0 0 0 2.09 2.81c.4-.84.78-1.67 1.14-2.5a12.52 12.52 0 0 1 -3.23-.31z" fill="#595b63"/><path d="m316.34 189.23c-4.94 1.29-10.86 3.17-10.86 3.17-28-6.16-22.9 29.11-21.74 39a16.17 16.17 0 0 0 -3.42.36 18.24 18.24 0 0 1 5.08 4.64 79.44 79.44 0 0 0 1.12-12.11s16.8 2.88 31.16-1.18 23.67-25.11 23.67-25.11a114.5 114.5 0 0 0 -25.01-8.77z" fill="#595b63"/><path d="m319.36 187.18c-6.92-5.24-17.62-7.35-27.25-5.38-7.85 1.6-14 5.69-17.33 11.51-6.85 12-5.83 28.09-4.57 36.82l.27-.08a12.14 12.14 0 0 1 3.74-.27c-1.17-8.17-2.23-23.55 4-34.48 2.75-4.81 8-8.21 14.66-9.58a33 33 0 0 1 6.57-.66 31.68 31.68 0 0 1 13.62 3c-3.31.94-6.5 1.92-7.72 2.31-7.42-1.53-13.31-.37-17.51 3.44-9.19 8.33-7.42 26.81-6.36 35.78a16.33 16.33 0 0 0 -3.88.95 15.8 15.8 0 0 1 5 3h1.12a2 2 0 0 0 1.5-.67 2.07 2.07 0 0 0 .49-1.56l-.12-1c-.85-7.16-3.13-26.17 4.94-33.48 3.29-3 8.17-3.79 14.5-2.4a2 2 0 0 0 1 0c.07 0 7.51-2.38 12.53-3.59a2 2 0 0 0 .74-3.54z" fill="#595b63"/><path d="m273.15 265.93-7.15 32.74a2 2 0 0 0 1.52 2.39 2.18 2.18 0 0 0 .44 0 2 2 0 0 0 1.95-1.57l7.31-33.29a12.35 12.35 0 0 1 -4.07-.27z" fill="#595b63"/><path d="m326 231.18a12.85 12.85 0 0 0 -12.11 17.23l.33-4.35s1.49 1.19 3.4 2.91a8.76 8.76 0 0 1 -.5-2.91 8.92 8.92 0 1 1 5.92 8.36 12.52 12.52 0 0 1 2.77 4.51h.19a12.88 12.88 0 0 0 0-25.76z" fill="#595b63"/><path d="m341.62 237.07a16.43 16.43 0 0 0 -7-6c.07 1.57.13 3.12.19 4.65a13.23 13.23 0 0 1 3.53 3.58 19.74 19.74 0 0 1 -2 23.5q-.52.54-1.08 1v4.9a17.84 17.84 0 0 0 4-3.16 23.71 23.71 0 0 0 2.39-28.51z" fill="#595b63"/><path d="m341.23 550.57 2.55-20.42a1.17 1.17 0 0 0 -1.33-1.32l-85.51 10.86c-.28 0 5.7 7.08 2.32 7.83l.59 3.05z" fill="#595b63"/><path d="m592.08 552.57h-101.51a2 2 0 0 1 -1.45-.62 2.07 2.07 0 0 1 -.55-1.48c1-20.87 2.57-35.14 4.6-42.4a2 2 0 0 1 2-1.46l84.23 4.39a2 2 0 0 1 1.39.67c.31.35 7.6 8.88 13.26 38.57a2 2 0 0 1 -2 2.38zm-99.41-4h97c-4.49-22.31-9.81-31.36-11.4-33.68l-81.63-4.2c-1.7 7.12-3.03 19.84-3.97 37.88z" fill="#595b63"/><path d="m355 436.5c-.94 36-2.71 72.73-3.11 80.84l-88.54 13a2 2 0 0 0 .29 4h.29l90.16-13.23a2 2 0 0 0 1.71-1.87c0-.67 2.14-42.14 3.2-82.68z" fill="#595b63"/><path d="m310.25 303.82c37.2 8.69 44.65 67.56 44.9 69.62.27 4.82.41 10.71.47 17.31h4c-.06-6.71-.21-12.69-.48-17.59a.45.45 0 0 0 0-.11c-.29-2.59-7.54-63.68-48-73.13a2 2 0 1 0 -.91 3.9z" fill="#595b63"/><path d="m371.48 404.42a6.57 6.57 0 0 1 6.73-.23l5.24-.74a12.11 12.11 0 0 0 -2.14-2 10.55 10.55 0 0 0 -11.86-.45 2 2 0 1 0 2 3.45z" fill="#595b63"/><path d="m382.56 415.67c-.06.39-.13.78-.22 1.18-.68 3-1.95 5-3.77 6a8.22 8.22 0 0 1 -6 .44 2 2 0 0 0 -2.54 1.24 2 2 0 0 0 1.23 2.54 12.74 12.74 0 0 0 3.92.6 11 11 0 0 0 5.31-1.3c2.87-1.6 4.81-4.5 5.76-8.64.14-.62.24-1.23.32-1.84z" fill="#595b63"/><path d="m550.83 336.94c-15.41 7.38-26.93 8.88-34.23 4.46-7-4.26-8.8-13.37-9.05-20.25l-.88-31.61c0-6.91 1.44-11.6 4.37-14.35 4.88-4.56 14.05-4.34 27.5-3.48l.91.06 4.44.37c4.69.37 9 .71 12.68 1.32a35.05 35.05 0 0 0 -.71-4.16c-3.53-.5-7.44-.82-11.66-1.15l-4.41-.36-1-.08c-14.48-.92-24.43-1.1-30.48 4.56-3.78 3.54-5.63 9.18-5.64 17.32l.88 31.68c.41 11.31 4.2 19.45 11 23.55a22.59 22.59 0 0 0 12 3c7.19 0 15.9-2.43 26.06-7.3a2 2 0 0 0 -1.72-3.61z" fill="#595b63"/><path d="m568.59 278.74c2.22 2.79 2.87 7.08 2 13.12a2 2 0 0 0 .16 1.09 11.3 11.3 0 0 1 1.86 1.19 2 2 0 0 0 1.94-1.7c1.06-7.19.15-12.49-2.8-16.19a14.72 14.72 0 0 0 -4.82-3.87c.23 1.72.38 3.43.46 5.11a9.67 9.67 0 0 1 1.2 1.25z" fill="#595b63"/><path d="m562.6 258.82c6 10.56 5.14 25.07 4 33a10.6 10.6 0 0 1 1.58.25c7.43 1.74 11.7 10.62 9.54 19.84 0 .22-.12.43-.18.65 8.62-15.5 12.92-35-5.6-51.46-5.24-4.66-10.24-7.15-14.89-8.18a18.28 18.28 0 0 1 5.55 5.9z" fill="#595b63"/><path d="m559.07 293.65a14.7 14.7 0 0 0 -3.18-.34c1.05-9 5.51-40.2-18.15-36.63a44.4 44.4 0 0 0 -12.26 11.71s3.75 9.65 7.9 11.3c17.93 7.1 20.06 16.25 20.25 19.3a17.18 17.18 0 0 1 5.44-5.34z" fill="#595b63"/><path d="m554 292.18-.11.9a2.07 2.07 0 0 0 .49 1.56 2 2 0 0 0 1.5.67h.88a14.78 14.78 0 0 1 5-2.95 15 15 0 0 0 -3.66-.94c1-8.41 2.57-25.48-6-33.22-3.93-3.57-9.44-4.66-16.36-3.24-1.11-.35-3.86-1.2-6.78-2a30.32 30.32 0 0 1 18.34-2c6.18 1.26 11 4.4 13.52 8.83 5.8 10.14 4.81 24.41 3.71 32a11.07 11.07 0 0 1 3.62.24l.4.11c1.17-8.12 2.13-23.14-4.26-34.31-3.11-5.44-8.86-9.26-16.19-10.76-9-1.84-19 .13-25.43 5a2 2 0 0 0 .73 3.54c4.66 1.12 11.57 3.31 11.64 3.33a2 2 0 0 0 1 .05c5.84-1.29 10.33-.55 13.35 2.19 7.52 6.76 5.41 24.37 4.61 31z" fill="#595b63"/><path d="m564.15 325.62a11.23 11.23 0 0 1 -3.78-.22c-.11 0-.22-.07-.33-.1a126.93 126.93 0 0 0 -6.15 39.3 2 2 0 0 0 2 1.92h.11a2 2 0 0 0 1.93-2.07 125.54 125.54 0 0 1 6.22-38.83z" fill="#595b63"/><path d="m174.75 369.21h-62.82a6.61 6.61 0 0 1 -6.61-6.61v-36.77a6.61 6.61 0 0 1 6.61-6.6h62.82a6.61 6.61 0 0 1 6.61 6.6v36.77a6.61 6.61 0 0 1 -6.61 6.61zm-62.82-46a2.6 2.6 0 0 0 -2.61 2.6v36.79a2.61 2.61 0 0 0 2.61 2.61h62.82a2.61 2.61 0 0 0 2.61-2.61v-36.77a2.6 2.6 0 0 0 -2.61-2.6z" fill="#595b63"/><path d="m143.34 351.84a4.83 4.83 0 0 1 -2.64-.77l-34.46-22a2 2 0 1 1 2.15-3.37l34.46 22a.91.91 0 0 0 1 0l34.46-22a2 2 0 1 1 2.15 3.37l-34.46 22a4.83 4.83 0 0 1 -2.66.77z" fill="#595b63"/><path d="m459.67 297.61h-84.67a2 2 0 0 1 -2-2v-53.67a2 2 0 0 1 2-2h84.64a2 2 0 0 1 2 2v53.67a2 2 0 0 1 -1.97 2zm-82.64-4h80.64v-49.67h-80.67z" fill="#595b63"/></svg>